<svg xmlns="http://www.w3.org/2000/svg" width="1200" height="360" viewBox="0 0 1200 360" role="img" aria-labelledby="title desc">
  <title id="title">DeHor Labs - agent infrastructure</title>
  <desc id="desc">Dark banner showing DeHor Labs as an agent infrastructure lab for MCP, skills, review loops, and memory.</desc>
  <defs>
    <linearGradient id="bg" x1="0" y1="0" x2="1" y2="1">
      <stop offset="0" stop-color="#07111F"/>
      <stop offset="0.56" stop-color="#101826"/>
      <stop offset="1" stop-color="#152417"/>
    </linearGradient>
    <linearGradient id="accent" x1="0" y1="0" x2="1" y2="0">
      <stop offset="0" stop-color="#38BDF8"/>
      <stop offset="0.48" stop-color="#34D399"/>
      <stop offset="1" stop-color="#FBBF24"/>
    </linearGradient>
  </defs>
  <rect width="1200" height="360" rx="22" fill="url(#bg)"/>
  <g opacity="0.2" fill="none">
    <path d="M660 83h132v60H660zM845 83h132v60H845zM750 200h132v60H750zM1030 178h92v48h-92z" stroke="#94A3B8"/>
    <path d="M792 113h53M911 143l-79 57M882 230l148-6" stroke="url(#accent)" stroke-width="2"/>
    <path d="M64 298 C207 186 323 302 456 206 S664 88 788 172 S984 285 1144 110" stroke="url(#accent)" stroke-width="3"/>
  </g>
  <g>
    <rect x="64" y="68" width="78" height="78" rx="18" fill="#0F1F33" stroke="#284863"/>
    <path d="M102 88l22 13v26l-22 13-22-13v-26l22-13z" fill="none" stroke="#7DD3FC" stroke-width="4" stroke-linejoin="round"/>
    <path d="M102 105v18M88 97l14 8 14-8" fill="none" stroke="#A7F3D0" stroke-width="4" stroke-linecap="round" stroke-linejoin="round"/>
  </g>
  <text x="165" y="105" fill="#F8FAFC" font-family="Inter, ui-sans-serif, system-ui, -apple-system, BlinkMacSystemFont, Segoe UI, sans-serif" font-size="48" font-weight="800">DeHor Labs</text>
  <text x="166" y="148" fill="#CBD5E1" font-family="Inter, ui-sans-serif, system-ui, -apple-system, BlinkMacSystemFont, Segoe UI, sans-serif" font-size="21" font-weight="500">Agent infrastructure, MCP servers, skills, and durable workflow memory</text>
  <text x="67" y="207" fill="#94A3B8" font-family="Inter, ui-sans-serif, system-ui, -apple-system, BlinkMacSystemFont, Segoe UI, sans-serif" font-size="16">Codex + Claude Code | tool contracts | multimodal dossiers | browser validation | review gates</text>
  <g font-family="Inter, ui-sans-serif, system-ui, -apple-system, BlinkMacSystemFont, Segoe UI, sans-serif" font-size="14" font-weight="700">
    <rect x="65" y="252" width="157" height="34" rx="17" fill="#102235" stroke="#2A4365"/>
    <text x="88" y="274" fill="#BAE6FD">Capability Router</text>
    <rect x="237" y="252" width="118" height="34" rx="17" fill="#10261E" stroke="#285244"/>
    <text x="261" y="274" fill="#BBF7D0">TranscreveAI</text>
    <rect x="370" y="252" width="128" height="34" rx="17" fill="#2B2413" stroke="#574724"/>
    <text x="394" y="274" fill="#FEF3C7">MCP Fiscal</text>
    <rect x="513" y="252" width="110" height="34" rx="17" fill="#172033" stroke="#334155"/>
    <text x="539" y="274" fill="#E2E8F0">Visual Eyes</text>
  </g>
  <g fill="#F8FAFC" font-family="Inter, ui-sans-serif, system-ui, -apple-system, BlinkMacSystemFont, Segoe UI, sans-serif" font-size="13" font-weight="700" text-anchor="middle">
    <text x="726" y="118">MCP</text>
    <text x="911" y="118">Skills</text>
    <text x="816" y="235">Memory</text>
    <text x="1076" y="209">Review</text>
  </g>
  <rect x="0" y="0" width="1200" height="360" rx="22" fill="none" stroke="#243244"/>
</svg>
